<?xml version="1.0" encoding="utf-8" ?>
<svg baseProfile="tiny" height="100%" version="1.2" width="100%" xmlns="http://www.w3.org/2000/svg" xmlns:ev="http://www.w3.org/2001/xml-events" xmlns:xlink="http://www.w3.org/1999/xlink"><defs /><rect fill="#0A0A0A" height="100%" width="100%" x="0" y="0" /><line opacity="0.2" stroke="#00D4FF" stroke-width="0.5" x1="0%" x2="0%" y1="0%" y2="100%" /><line opacity="0.2" stroke="#00D4FF" stroke-width="0.5" x1="0%" x2="100%" y1="0%" y2="0%" /><line opacity="0.2" stroke="#00D4FF" stroke-width="0.5" x1="5%" x2="5%" y1="0%" y2="100%" /><line opacity="0.2" stroke="#00D4FF" stroke-width="0.5" x1="0%" x2="100%" y1="5%" y2="5%" /><line opacity="0.2" stroke="#00D4FF" stroke-width="0.5" x1="10%" x2="10%" y1="0%" y2="100%" /><line opacity="0.2" stroke="#00D4FF" stroke-width="0.5" x1="0%" x2="100%" y1="10%" y2="10%" /><line opacity="0.2" stroke="#00D4FF" stroke-width="0.5" x1="15%" x2="15%" y1="0%" y2="100%" /><line opacity="0.2" stroke="#00D4FF" stroke-width="0.5" x1="0%" x2="100%" y1="15%" y2="15%" /><line opacity="0.2" stroke="#00D4FF" stroke-width="0.5" x1="20%" x2="20%" y1="0%" y2="100%" /><line opacity="0.2" stroke="#00D4FF" stroke-width="0.5" x1="0%" x2="100%" y1="20%" y2="20%" /><line opacity="0.2" stroke="#00D4FF" stroke-width="0.5" x1="25%" x2="25%" y1="0%" y2="100%" /><line opacity="0.2" stroke="#00D4FF" stroke-width="0.5" x1="0%" x2="100%" y1="25%" y2="25%" /><line opacity="0.2" stroke="#00D4FF" stroke-width="0.5" x1="30%" x2="30%" y1="0%" y2="100%" /><line opacity="0.2" stroke="#00D4FF" stroke-width="0.5" x1="0%" x2="100%" y1="30%" y2="30%" /><line opacity="0.2" stroke="#00D4FF" stroke-width="0.5" x1="35%" x2="35%" y1="0%" y2="100%" /><line opacity="0.2" stroke="#00D4FF" stroke-width="0.5" x1="0%" x2="100%" y1="35%" y2="35%" /><line opacity="0.2" stroke="#00D4FF" stroke-width="0.5" x1="40%" x2="40%" y1="0%" y2="100%" /><line opacity="0.2" stroke="#00D4FF" stroke-width="0.5" x1="0%" x2="100%" y1="40%" y2="40%" /><line opacity="0.2" stroke="#00D4FF" stroke-width="0.5" x1="45%" x2="45%" y1="0%" y2="100%" /><line opacity="0.2" stroke="#00D4FF" stroke-width="0.5" x1="0%" x2="100%" y1="45%" y2="45%" /><line opacity="0.2" stroke="#00D4FF" stroke-width="0.5" x1="50%" x2="50%" y1="0%" y2="100%" /><line opacity="0.2" stroke="#00D4FF" stroke-width="0.5" x1="0%" x2="100%" y1="50%" y2="50%" /><line opacity="0.2" stroke="#00D4FF" stroke-width="0.5" x1="55%" x2="55%" y1="0%" y2="100%" /><line opacity="0.2" stroke="#00D4FF" stroke-width="0.5" x1="0%" x2="100%" y1="55%" y2="55%" /><line opacity="0.2" stroke="#00D4FF" stroke-width="0.5" x1="60%" x2="60%" y1="0%" y2="100%" /><line opacity="0.2" stroke="#00D4FF" stroke-width="0.5" x1="0%" x2="100%" y1="60%" y2="60%" /><line opacity="0.2" stroke="#00D4FF" stroke-width="0.5" x1="65%" x2="65%" y1="0%" y2="100%" /><line opacity="0.2" stroke="#00D4FF" stroke-width="0.5" x1="0%" x2="100%" y1="65%" y2="65%" /><line opacity="0.2" stroke="#00D4FF" stroke-width="0.5" x1="70%" x2="70%" y1="0%" y2="100%" /><line opacity="0.2" stroke="#00D4FF" stroke-width="0.5" x1="0%" x2="100%" y1="70%" y2="70%" /><line opacity="0.2" stroke="#00D4FF" stroke-width="0.5" x1="75%" x2="75%" y1="0%" y2="100%" /><line opacity="0.2" stroke="#00D4FF" stroke-width="0.5" x1="0%" x2="100%" y1="75%" y2="75%" /><line opacity="0.2" stroke="#00D4FF" stroke-width="0.5" x1="80%" x2="80%" y1="0%" y2="100%" /><line opacity="0.2" stroke="#00D4FF" stroke-width="0.5" x1="0%" x2="100%" y1="80%" y2="80%" /><line opacity="0.2" stroke="#00D4FF" stroke-width="0.5" x1="85%" x2="85%" y1="0%" y2="100%" /><line opacity="0.2" stroke="#00D4FF" stroke-width="0.5" x1="0%" x2="100%" y1="85%" y2="85%" /><line opacity="0.2" stroke="#00D4FF" stroke-width="0.5" x1="90%" x2="90%" y1="0%" y2="100%" /><line opacity="0.2" stroke="#00D4FF" stroke-width="0.5" x1="0%" x2="100%" y1="90%" y2="90%" /><line opacity="0.2" stroke="#00D4FF" stroke-width="0.5" x1="95%" x2="95%" y1="0%" y2="100%" /><line opacity="0.2" stroke="#00D4FF" stroke-width="0.5" x1="0%" x2="100%" y1="95%" y2="95%" /><line opacity="0.2" stroke="#00D4FF" stroke-width="0.5" x1="100%" x2="100%" y1="0%" y2="100%" /><line opacity="0.2" stroke="#00D4FF" stroke-width="0.5" x1="0%" x2="100%" y1="100%" y2="100%" /></svg>