<?xml version="1.0" encoding="utf-8" ?>
<svg baseProfile="tiny" height="100%" version="1.2" width="100%" xmlns="http://www.w3.org/2000/svg" xmlns:ev="http://www.w3.org/2001/xml-events" xmlns:xlink="http://www.w3.org/1999/xlink"><defs /><rect fill="#0A0A0A" height="100%" width="100%" x="0" y="0" /><line opacity="0.1" stroke="#B2642E" stroke-width="1" x1="0%" x2="100%" y1="0%" y2="1%" /><line opacity="0.1" stroke="#B2642E" stroke-width="1" x1="0%" x2="100%" y1="2%" y2="3%" /><line opacity="0.1" stroke="#B2642E" stroke-width="1" x1="0%" x2="100%" y1="4%" y2="5%" /><line opacity="0.1" stroke="#B2642E" stroke-width="1" x1="0%" x2="100%" y1="6%" y2="7%" /><line opacity="0.1" stroke="#B2642E" stroke-width="1" x1="0%" x2="100%" y1="8%" y2="9%" /><line opacity="0.1" stroke="#B2642E" stroke-width="1" x1="0%" x2="100%" y1="10%" y2="11%" /><line opacity="0.1" stroke="#B2642E" stroke-width="1" x1="0%" x2="100%" y1="12%" y2="13%" /><line opacity="0.1" stroke="#B2642E" stroke-width="1" x1="0%" x2="100%" y1="14%" y2="15%" /><line opacity="0.1" stroke="#B2642E" stroke-width="1" x1="0%" x2="100%" y1="16%" y2="17%" /><line opacity="0.1" stroke="#B2642E" stroke-width="1" x1="0%" x2="100%" y1="18%" y2="19%" /><line opacity="0.1" stroke="#B2642E" stroke-width="1" x1="0%" x2="100%" y1="20%" y2="21%" /><line opacity="0.1" stroke="#B2642E" stroke-width="1" x1="0%" x2="100%" y1="22%" y2="23%" /><line opacity="0.1" stroke="#B2642E" stroke-width="1" x1="0%" x2="100%" y1="24%" y2="25%" /><line opacity="0.1" stroke="#B2642E" stroke-width="1" x1="0%" x2="100%" y1="26%" y2="27%" /><line opacity="0.1" stroke="#B2642E" stroke-width="1" x1="0%" x2="100%" y1="28%" y2="29%" /><line opacity="0.1" stroke="#B2642E" stroke-width="1" x1="0%" x2="100%" y1="30%" y2="31%" /><line opacity="0.1" stroke="#B2642E" stroke-width="1" x1="0%" x2="100%" y1="32%" y2="33%" /><line opacity="0.1" stroke="#B2642E" stroke-width="1" x1="0%" x2="100%" y1="34%" y2="35%" /><line opacity="0.1" stroke="#B2642E" stroke-width="1" x1="0%" x2="100%" y1="36%" y2="37%" /><line opacity="0.1" stroke="#B2642E" stroke-width="1" x1="0%" x2="100%" y1="38%" y2="39%" /><line opacity="0.1" stroke="#B2642E" stroke-width="1" x1="0%" x2="100%" y1="40%" y2="41%" /><line opacity="0.1" stroke="#B2642E" stroke-width="1" x1="0%" x2="100%" y1="42%" y2="43%" /><line opacity="0.1" stroke="#B2642E" stroke-width="1" x1="0%" x2="100%" y1="44%" y2="45%" /><line opacity="0.1" stroke="#B2642E" stroke-width="1" x1="0%" x2="100%" y1="46%" y2="47%" /><line opacity="0.1" stroke="#B2642E" stroke-width="1" x1="0%" x2="100%" y1="48%" y2="49%" /><line opacity="0.1" stroke="#B2642E" stroke-width="1" x1="0%" x2="100%" y1="50%" y2="51%" /><line opacity="0.1" stroke="#B2642E" stroke-width="1" x1="0%" x2="100%" y1="52%" y2="53%" /><line opacity="0.1" stroke="#B2642E" stroke-width="1" x1="0%" x2="100%" y1="54%" y2="55%" /><line opacity="0.1" stroke="#B2642E" stroke-width="1" x1="0%" x2="100%" y1="56%" y2="57%" /><line opacity="0.1" stroke="#B2642E" stroke-width="1" x1="0%" x2="100%" y1="58%" y2="59%" /><line opacity="0.1" stroke="#B2642E" stroke-width="1" x1="0%" x2="100%" y1="60%" y2="61%" /><line opacity="0.1" stroke="#B2642E" stroke-width="1" x1="0%" x2="100%" y1="62%" y2="63%" /><line opacity="0.1" stroke="#B2642E" stroke-width="1" x1="0%" x2="100%" y1="64%" y2="65%" /><line opacity="0.1" stroke="#B2642E" stroke-width="1" x1="0%" x2="100%" y1="66%" y2="67%" /><line opacity="0.1" stroke="#B2642E" stroke-width="1" x1="0%" x2="100%" y1="68%" y2="69%" /><line opacity="0.1" stroke="#B2642E" stroke-width="1" x1="0%" x2="100%" y1="70%" y2="71%" /><line opacity="0.1" stroke="#B2642E" stroke-width="1" x1="0%" x2="100%" y1="72%" y2="73%" /><line opacity="0.1" stroke="#B2642E" stroke-width="1" x1="0%" x2="100%" y1="74%" y2="75%" /><line opacity="0.1" stroke="#B2642E" stroke-width="1" x1="0%" x2="100%" y1="76%" y2="77%" /><line opacity="0.1" stroke="#B2642E" stroke-width="1" x1="0%" x2="100%" y1="78%" y2="79%" /><line opacity="0.1" stroke="#B2642E" stroke-width="1" x1="0%" x2="100%" y1="80%" y2="81%" /><line opacity="0.1" stroke="#B2642E" stroke-width="1" x1="0%" x2="100%" y1="82%" y2="83%" /><line opacity="0.1" stroke="#B2642E" stroke-width="1" x1="0%" x2="100%" y1="84%" y2="85%" /><line opacity="0.1" stroke="#B2642E" stroke-width="1" x1="0%" x2="100%" y1="86%" y2="87%" /><line opacity="0.1" stroke="#B2642E" stroke-width="1" x1="0%" x2="100%" y1="88%" y2="89%" /><line opacity="0.1" stroke="#B2642E" stroke-width="1" x1="0%" x2="100%" y1="90%" y2="91%" /><line opacity="0.1" stroke="#B2642E" stroke-width="1" x1="0%" x2="100%" y1="92%" y2="93%" /><line opacity="0.1" stroke="#B2642E" stroke-width="1" x1="0%" x2="100%" y1="94%" y2="95%" /><line opacity="0.1" stroke="#B2642E" stroke-width="1" x1="0%" x2="100%" y1="96%" y2="97%" /><line opacity="0.1" stroke="#B2642E" stroke-width="1" x1="0%" x2="100%" y1="98%" y2="99%" /><line opacity="0.1" stroke="#B2642E" stroke-width="1" x1="0%" x2="100%" y1="100%" y2="101%" /></svg>