<?xml version="1.0" encoding="utf-8" ?>
<svg baseProfile="tiny" height="100%" version="1.2" width="100%" xmlns="http://www.w3.org/2000/svg" xmlns:ev="http://www.w3.org/2001/xml-events" xmlns:xlink="http://www.w3.org/1999/xlink"><defs /><rect fill="#0A0A0A" height="100%" width="100%" x="0" y="0" /><path d="M 0 0 C 10 50, 20 50, 30 100" fill="none" opacity="0.3" stroke="#39FF14" stroke-width="0.5" /><path d="M 5 0 C 15 50, 25 50, 35 100" fill="none" opacity="0.3" stroke="#39FF14" stroke-width="0.5" /><path d="M 10 0 C 20 50, 30 50, 40 100" fill="none" opacity="0.3" stroke="#39FF14" stroke-width="0.5" /><path d="M 15 0 C 25 50, 35 50, 45 100" fill="none" opacity="0.3" stroke="#39FF14" stroke-width="0.5" /><path d="M 20 0 C 30 50, 40 50, 50 100" fill="none" opacity="0.3" stroke="#39FF14" stroke-width="0.5" /><path d="M 25 0 C 35 50, 45 50, 55 100" fill="none" opacity="0.3" stroke="#39FF14" stroke-width="0.5" /><path d="M 30 0 C 40 50, 50 50, 60 100" fill="none" opacity="0.3" stroke="#39FF14" stroke-width="0.5" /><path d="M 35 0 C 45 50, 55 50, 65 100" fill="none" opacity="0.3" stroke="#39FF14" stroke-width="0.5" /><path d="M 40 0 C 50 50, 60 50, 70 100" fill="none" opacity="0.3" stroke="#39FF14" stroke-width="0.5" /><path d="M 45 0 C 55 50, 65 50, 75 100" fill="none" opacity="0.3" stroke="#39FF14" stroke-width="0.5" /><path d="M 50 0 C 60 50, 70 50, 80 100" fill="none" opacity="0.3" stroke="#39FF14" stroke-width="0.5" /><path d="M 55 0 C 65 50, 75 50, 85 100" fill="none" opacity="0.3" stroke="#39FF14" stroke-width="0.5" /><path d="M 60 0 C 70 50, 80 50, 90 100" fill="none" opacity="0.3" stroke="#39FF14" stroke-width="0.5" /><path d="M 65 0 C 75 50, 85 50, 95 100" fill="none" opacity="0.3" stroke="#39FF14" stroke-width="0.5" /><path d="M 70 0 C 80 50, 90 50, 100 100" fill="none" opacity="0.3" stroke="#39FF14" stroke-width="0.5" /><path d="M 75 0 C 85 50, 95 50, 105 100" fill="none" opacity="0.3" stroke="#39FF14" stroke-width="0.5" /><path d="M 80 0 C 90 50, 100 50, 110 100" fill="none" opacity="0.3" stroke="#39FF14" stroke-width="0.5" /><path d="M 85 0 C 95 50, 105 50, 115 100" fill="none" opacity="0.3" stroke="#39FF14" stroke-width="0.5" /><path d="M 90 0 C 100 50, 110 50, 120 100" fill="none" opacity="0.3" stroke="#39FF14" stroke-width="0.5" /><path d="M 95 0 C 105 50, 115 50, 125 100" fill="none" opacity="0.3" stroke="#39FF14" stroke-width="0.5" /></svg>