<?xml version="1.0" encoding="utf-8" ?>
<svg baseProfile="tiny" height="100%" version="1.2" width="100%" xmlns="http://www.w3.org/2000/svg" xmlns:ev="http://www.w3.org/2001/xml-events" xmlns:xlink="http://www.w3.org/1999/xlink"><defs /><rect fill="#0A0A0A" height="100%" width="100%" x="0" y="0" /><circle cx="0%" cy="0%" fill="#C41E3A" opacity="0.1" r="0%" /><circle cx="2%" cy="2%" fill="#C41E3A" opacity="0.1" r="1%" /><circle cx="4%" cy="4%" fill="#C41E3A" opacity="0.1" r="2%" /><circle cx="6%" cy="6%" fill="#C41E3A" opacity="0.1" r="3%" /><circle cx="8%" cy="8%" fill="#C41E3A" opacity="0.1" r="4%" /><circle cx="10%" cy="10%" fill="#C41E3A" opacity="0.1" r="5%" /><circle cx="12%" cy="12%" fill="#C41E3A" opacity="0.1" r="6%" /><circle cx="14%" cy="14%" fill="#C41E3A" opacity="0.1" r="7%" /><circle cx="16%" cy="16%" fill="#C41E3A" opacity="0.1" r="8%" /><circle cx="18%" cy="18%" fill="#C41E3A" opacity="0.1" r="9%" /><circle cx="20%" cy="20%" fill="#C41E3A" opacity="0.1" r="10%" /><circle cx="22%" cy="22%" fill="#C41E3A" opacity="0.1" r="11%" /><circle cx="24%" cy="24%" fill="#C41E3A" opacity="0.1" r="12%" /><circle cx="26%" cy="26%" fill="#C41E3A" opacity="0.1" r="13%" /><circle cx="28%" cy="28%" fill="#C41E3A" opacity="0.1" r="14%" /><circle cx="30%" cy="30%" fill="#C41E3A" opacity="0.1" r="15%" /><circle cx="32%" cy="32%" fill="#C41E3A" opacity="0.1" r="16%" /><circle cx="34%" cy="34%" fill="#C41E3A" opacity="0.1" r="17%" /><circle cx="36%" cy="36%" fill="#C41E3A" opacity="0.1" r="18%" /><circle cx="38%" cy="38%" fill="#C41E3A" opacity="0.1" r="19%" /><circle cx="40%" cy="40%" fill="#C41E3A" opacity="0.1" r="20%" /><circle cx="42%" cy="42%" fill="#C41E3A" opacity="0.1" r="21%" /><circle cx="44%" cy="44%" fill="#C41E3A" opacity="0.1" r="22%" /><circle cx="46%" cy="46%" fill="#C41E3A" opacity="0.1" r="23%" /><circle cx="48%" cy="48%" fill="#C41E3A" opacity="0.1" r="24%" /><circle cx="50%" cy="50%" fill="#C41E3A" opacity="0.1" r="25%" /><circle cx="52%" cy="52%" fill="#C41E3A" opacity="0.1" r="26%" /><circle cx="54%" cy="54%" fill="#C41E3A" opacity="0.1" r="27%" /><circle cx="56%" cy="56%" fill="#C41E3A" opacity="0.1" r="28%" /><circle cx="58%" cy="58%" fill="#C41E3A" opacity="0.1" r="29%" /><circle cx="60%" cy="60%" fill="#C41E3A" opacity="0.1" r="30%" /><circle cx="62%" cy="62%" fill="#C41E3A" opacity="0.1" r="31%" /><circle cx="64%" cy="64%" fill="#C41E3A" opacity="0.1" r="32%" /><circle cx="66%" cy="66%" fill="#C41E3A" opacity="0.1" r="33%" /><circle cx="68%" cy="68%" fill="#C41E3A" opacity="0.1" r="34%" /><circle cx="70%" cy="70%" fill="#C41E3A" opacity="0.1" r="35%" /><circle cx="72%" cy="72%" fill="#C41E3A" opacity="0.1" r="36%" /><circle cx="74%" cy="74%" fill="#C41E3A" opacity="0.1" r="37%" /><circle cx="76%" cy="76%" fill="#C41E3A" opacity="0.1" r="38%" /><circle cx="78%" cy="78%" fill="#C41E3A" opacity="0.1" r="39%" /><circle cx="80%" cy="80%" fill="#C41E3A" opacity="0.1" r="40%" /><circle cx="82%" cy="82%" fill="#C41E3A" opacity="0.1" r="41%" /><circle cx="84%" cy="84%" fill="#C41E3A" opacity="0.1" r="42%" /><circle cx="86%" cy="86%" fill="#C41E3A" opacity="0.1" r="43%" /><circle cx="88%" cy="88%" fill="#C41E3A" opacity="0.1" r="44%" /><circle cx="90%" cy="90%" fill="#C41E3A" opacity="0.1" r="45%" /><circle cx="92%" cy="92%" fill="#C41E3A" opacity="0.1" r="46%" /><circle cx="94%" cy="94%" fill="#C41E3A" opacity="0.1" r="47%" /><circle cx="96%" cy="96%" fill="#C41E3A" opacity="0.1" r="48%" /><circle cx="98%" cy="98%" fill="#C41E3A" opacity="0.1" r="49%" /></svg>